<mxfile host="app.diagrams.net" modified="2024-05-15T15:52:26.932Z" agent="Mozilla/5.0 (Macintosh; Intel Mac OS X 10_15_7) AppleWebKit/605.1.15 (KHTML, like Gecko) Version/17.5 Safari/605.1.15" version="24.4.0" etag="jV3xCQEetT_k5uK_MVW1" type="github">
  <diagram name="Page-1" id="ECZcjspqXXcLCmVk5CXV">
    <mxGraphModel>
      <root>
        <mxCell id="0" />
        <mxCell id="1" parent="0" />
      </root>
    </mxGraphModel>
  </diagram>
</mxfile>
